<?xml version="1.0" standalone="no"?>
<!DOCTYPE svg PUBLIC "-//W3C//DTD SVG 1.1//EN" "http://www.w3.org/Graphics/SVG/1.1/DTD/svg11.dtd" >
<svg xmlns="http://www.w3.org/2000/svg">
<metadata></metadata>
<defs>
<font id="IntervalSansProSemiBoldRg" horiz-adv-x="590" >
<font-face units-per-em="1000" ascent="750" descent="-250" />
<missing-glyph horiz-adv-x="278" />
<glyph unicode="&#xfb01;" horiz-adv-x="540" d="M10 399v85h57v42q0 46 13 78.5t29 47.5t40.5 23.5t36.5 9t29 0.5h3h2q42 0 91 -26l-14 -74q-40 15 -63 15q-39 0 -39 -57v-59h285v-484h-129v399h-156v-399h-129l1 399h-57z" />
<glyph unicode="&#xfb02;" horiz-adv-x="540" d="M10 399v85h57v31q0 45 14 77.5t31.5 47.5t43 23.5t38 9.5t26.5 1h260v-674h-129v589h-117q-39 0 -39 -57v-48h90v-85h-90v-399h-129l1 399h-57z" />
<glyph unicode="&#xfb03;" horiz-adv-x="831" d="M10 399v85h57v42q0 46 13 78.5t29 47.5t40.5 23.5t36.5 9t29 0.5h3h2q42 0 91 -26l-14 -74q-40 15 -63 15q-39 0 -39 -57v-59h163v42q0 46 13 78.5t29 47.5t40.5 23.5t36.5 9t29 0.5h5q42 0 91 -26l-14 -74q-40 15 -63 15q-39 0 -39 -57v-59h285v-484h-129v399h-156v-399 h-128v399h-163v-399h-129l1 399h-57z" />
<glyph unicode="fll" horiz-adv-x="831" d="M10 399v85h57v42q0 46 13 78.5t29 47.5t40.5 23.5t36.5 9t29 0.5h3h2q42 0 91 -26l-14 -74q-40 15 -63 15q-39 0 -39 -57v-59h163v42q0 45 14 77.5t31.5 47.5t43 23.5t38 9.5t26.5 1h260v-685h-129v600h-117q-39 0 -39 -57v-59h90v-85h-90v-399h-128v399h-163v-399h-129 l1 399h-57z" />
<glyph horiz-adv-x="0" />
<glyph horiz-adv-x="1000" />
<glyph unicode=" "  horiz-adv-x="278" />
<glyph unicode="&#x09;" horiz-adv-x="278" />
<glyph unicode="&#xa0;" horiz-adv-x="278" />
<glyph unicode="!" horiz-adv-x="269" d="M70 0v106h129v-106h-129zM74 674h121l-8 -504h-105z" />
<glyph unicode="&#x22;" horiz-adv-x="392" d="M50 674h117l-9 -296h-98zM225 674h117l-9 -296h-98z" />
<glyph unicode="#" horiz-adv-x="623" d="M40 184v88h94l36 120h-78l1 86h107l60 186h121l-60 -186h76l59 186h119l-60 -186h68v-86h-97l-37 -120h77l-1 -88h-105l-60 -184h-115l59 184h-76l-61 -184h-119l58 184h-66zM255 272h77l37 120h-77z" />
<glyph unicode="$" d="M30 88l54 90q43 -38 106 -61.5t122 -23.5q84 0 113 62q12 31 -3.5 58t-49.5 43l-186 72q-72 28 -105.5 73t-33.5 93q0 77 57 126t141 61v85h99v-85q30 -4 74 -16q60 -21 113 -62l-46 -90q-92 71 -199 71q-42 0 -70.5 -20.5t-33.5 -50.5q-7 -55 75 -87l171 -67 q132 -50 132 -168q0 -87 -62 -139.5t-154 -60.5v-89h-99v91q-45 5 -78 18q-91 34 -137 77z" />
<glyph unicode="%" horiz-adv-x="834" d="M40 492q0 81 44.5 126.5t122.5 45.5t123.5 -45.5t45.5 -126.5t-45.5 -127t-123.5 -46q-77 0 -122 46t-45 127zM147 492q0 -39 15 -64t45 -25q31 0 46.5 25.5t15.5 63.5q0 39 -15.5 64t-46.5 25q-30 0 -45 -25t-15 -64zM184 0l393 674h76l-392 -674h-77zM458 162 q0 81 44.5 126.5t122.5 45.5t123.5 -45.5t45.5 -126.5t-45.5 -127t-123.5 -46q-77 0 -122 46t-45 127zM565 162q0 -39 15 -64t45 -25q31 0 46.5 25.5t15.5 63.5q0 39 -15.5 64t-46.5 25q-30 0 -45 -25t-15 -64z" />
<glyph unicode="&#x26;" horiz-adv-x="641" d="M40 183q0 63 35 109t95 72q-79 61 -75 157q5 72 60 112t126 40q70 0 124.5 -40t59.5 -111q3 -45 -20.5 -93t-82.5 -83l81 -85q5 42 5 49v36h107q6 -105 -24 -172q25 -25 36 -38t26.5 -35.5t21 -46.5t5.5 -54h-115q-3 57 -25 84q-23 -41 -75 -68t-124 -27 q-118 0 -179.5 55.5t-61.5 138.5zM165 190q0 -51 30.5 -82.5t85.5 -31.5q77 0 117 74l-143 148q-37 -12 -63.5 -40t-26.5 -68zM214 518q-2 -34 17 -68t48 -42q33 13 51.5 44.5t16.5 65.5q-3 30 -19 50.5t-47 21.5q-31 -1 -48 -22t-19 -50z" />
<glyph unicode="'" horiz-adv-x="217" d="M50 674h117l-9 -296h-98z" />
<glyph unicode="(" horiz-adv-x="397" d="M60 241q1 200 76.5 316.5t200.5 116.5v-82q-67 -1 -114 -89t-47 -264q0 -173 47 -260.5t114 -88.5v-82q-125 0 -200.5 116.5t-76.5 316.5z" />
<glyph unicode=")" horiz-adv-x="397" d="M60 -110q67 1 114 88.5t47 260.5q0 176 -47 264t-114 89v82q125 0 200.5 -116.5t76.5 -316.5q-1 -200 -76.5 -316.5t-200.5 -116.5v82z" />
<glyph unicode="*" horiz-adv-x="421" d="M40 463l94 43q-85 40 -94 44l49 82l82 -51q-1 17 -3 49.5t-2 43.5h90l-4 -92l79 50l50 -81l-95 -45l95 -43l-50 -82l-79 49l4 -91h-90l5 93l-82 -51z" />
<glyph unicode="+" horiz-adv-x="582" d="M40 271v99h196v193h110v-193h196v-99h-196v-192h-110v192h-196z" />
<glyph unicode="," horiz-adv-x="311" d="M40 -78l95 195h136l-125 -195h-106z" />
<glyph unicode="-" horiz-adv-x="441" d="M40 203v115h361v-115h-361z" />
<glyph unicode="." horiz-adv-x="237" d="M50 0v117h137v-117h-137z" />
<glyph unicode="/" horiz-adv-x="384" d="M30 0l232 674h92l-233 -674h-91z" />
<glyph unicode="0" d="M42 327q0 157 67 245.5t183 88.5q120 0 188 -88t68 -246t-68 -249t-188 -91q-116 0 -183 91.5t-67 248.5zM163 327q0 -100 34.5 -172t94.5 -72q63 0 98.5 71.5t35.5 172.5q0 98 -35.5 168t-98.5 70q-60 0 -94.5 -70.5t-34.5 -167.5z" />
<glyph unicode="1" d="M112 505l163 145h106v-650h-121v512l-93 -78z" />
<glyph unicode="2" d="M59 0v64q0 48 20 89t56 71.5t72 54t81 52t71 49.5q50 45 50 79q0 39 -31 64t-84 25q-79 0 -155 -95l-67 83q57 61 103 86q59 33 124 33q97 0 164 -55.5t67 -145.5q0 -28 -12 -54.5t-28 -46t-45 -42t-50 -36t-56 -34.5q-13 -8 -20 -12q-53 -32 -93 -67t-43 -59h335v-103 h-459z" />
<glyph unicode="3" d="M65 83l51 81q82 -79 176 -79q50 0 77 28t27 68q0 41 -28.5 71t-80.5 30h-75v102h71q51 0 78 25.5t27 61.5q0 38 -27 66t-73 28q-47 0 -86.5 -25t-64.5 -55l-53 79q74 97 209 97q95 1 158 -49t63 -139q0 -42 -27 -83.5t-80 -52.5q40 -6 68 -36t39 -61t11 -57 q0 -88 -68 -142.5t-161 -53.5q-59 0 -109.5 18t-72.5 35t-49 43z" />
<glyph unicode="4" d="M39 131v91q54 117 121 211t177 217h121v-426h92v-93h-92v-131h-124v132q-47 0 -148 -0.5t-147 -0.5zM153 224h181v271q-56 -57 -109.5 -138.5t-71.5 -132.5z" />
<glyph unicode="5" d="M56 105l70 74q65 -88 143 -88q77 0 112 38t35 86q0 55 -34 86t-85 31q-81 0 -112 -60h-101l46 369h358v-109h-261l-19 -140q23 21 57.5 31.5t54.5 10.5q95 0 153 -60.5t58 -161.5q0 -103 -73 -164t-183 -61q-138 0 -219 118z" />
<glyph unicode="6" d="M57 302q0 174 74.5 266.5t196.5 92.5q92 0 162 -45l-36 -80q-53 32 -112 32q-133 0 -158 -189q50 52 125 52q97 0 160 -60.5t63 -160.5q0 -103 -65 -162.5t-168 -59.5q-61 0 -106.5 21.5t-70.5 53.5t-40.5 77t-20 82.5t-4.5 79.5zM193 216q0 -58 28.5 -96.5t75.5 -38.5 q53 0 80.5 40.5t27.5 88.5t-28 89.5t-81 41.5q-48 0 -75.5 -36.5t-27.5 -88.5z" />
<glyph unicode="7" d="M59 546v104h471v-86q-103 -130 -169 -264t-119 -300h-141q65 171 136 303t170 243h-348z" />
<glyph unicode="8" d="M54 178q0 21 6 43.5t20 48t42.5 44.5t68.5 26q-58 15 -87 58t-29 91q0 73 50 114.5t120 53.5q30 4 50 4q32 0 50 -4q70 -12 120 -53.5t50 -114.5q0 -48 -29 -91t-87 -58q40 -7 68.5 -26t42.5 -44.5t20 -48t6 -43.5q0 -81 -61.5 -136t-179.5 -55t-179.5 55t-61.5 136z M180 184q0 -41 31 -72t84 -31t85.5 31t32.5 72q0 44 -31.5 79t-86.5 36q-55 -1 -85 -36t-30 -79zM192 481q1 -43 28.5 -67.5t74.5 -24.5q48 0 75 24t28 66q0 35 -28 65t-75 30q-46 0 -74.5 -29.5t-28.5 -63.5z" />
<glyph unicode="9" d="M57 439q0 103 65 162.5t168 59.5q61 0 106.5 -21.5t70.5 -53.5t40.5 -77t20 -82.5t4.5 -79.5q0 -174 -74.5 -266.5t-196.5 -92.5q-92 0 -162 45l36 80q53 -32 112 -32q133 0 158 189q-50 -52 -125 -52q-97 0 -160 60.5t-63 160.5zM184 439q0 -48 28 -89.5t81 -41.5 q48 0 75.5 36.5t27.5 88.5q0 58 -28 96.5t-76 38.5q-53 0 -80.5 -40.5t-27.5 -88.5z" />
<glyph unicode=":" horiz-adv-x="237" d="M50 0v117h137v-117h-137zM50 367v117h137v-117h-137z" />
<glyph unicode=";" horiz-adv-x="331" d="M50 -78l95 195h136l-125 -195h-106zM134 367v117h136v-117h-136z" />
<glyph unicode="&#x3c;" horiz-adv-x="596" d="M30 210v62l506 224v-120l-323 -135l323 -135v-120z" />
<glyph unicode="=" horiz-adv-x="515" d="M40 191v90h435v-90h-435zM40 374v89h435v-89h-435z" />
<glyph unicode="&#x3e;" horiz-adv-x="596" d="M60 -14v120l323 135l-323 135v120l506 -224v-62z" />
<glyph unicode="?" horiz-adv-x="555" d="M65 555q10 18 24.5 35.5t40.5 41t66.5 38t87.5 14.5q99 0 165 -51.5t66 -148.5q0 -87 -103 -174q-52 -42 -64 -60q-20 -29 -20 -80h-120q0 42 3.5 66t21.5 51t38 46t70 64q46 40 46 93q0 39 -28.5 64t-78.5 25q-51 0 -88.5 -29.5t-56.5 -62.5zM205 0v106h129v-106h-129z " />
<glyph unicode="@" horiz-adv-x="841" d="M50 304q0 168 110 273t271 105q74 0 135.5 -19t102.5 -50.5t69 -72t40.5 -83t12.5 -84.5q0 -73 -22 -130t-57.5 -89.5t-74 -48.5t-76.5 -16q-37 0 -57 22t-23 52q-65 -55 -114 -55q-149 0 -149 148q0 94 59.5 160t128.5 66q70 0 93 -42l7 34h113l-53 -244q-7 -8 -1 -35 t32 -27q11 0 28.5 11.5t37 34t33 63t13.5 90.5q0 62 -24 110t-64.5 76.5t-89 43t-100.5 14.5q-130 0 -213.5 -85t-83.5 -222q0 -140 82 -226.5t227 -86.5q136 0 277 96l28 -41q-53 -55 -138 -87t-170 -32q-172 0 -281 103.5t-109 273.5zM334 252q0 -69 42 -69q23 0 51 17 t35 48l19 115q3 24 -13 33.5t-31 9.5q-44 0 -65.5 -30.5t-33.5 -83.5q-4 -19 -4 -40z" />
<glyph unicode="A" horiz-adv-x="705" d="M10 0l280 674h125l280 -674h-138l-62 152h-287l-60 -152h-138zM246 253h212l-105 292z" />
<glyph unicode="B" horiz-adv-x="632" d="M65 0v674h308q101 0 151 -53.5t50 -131.5q0 -11 -2.5 -24.5t-10 -36t-27 -42.5t-47.5 -31q52 -10 86 -60t34 -105q0 -71 -53 -130.5t-149 -59.5h-340zM196 102h184q45 0 71 26.5t26 62.5q0 39 -26 68t-71 29h-184v-186zM196 390h170q39 0 59 29t20 59q0 43 -23 68.5 t-69 25.5h-157v-182z" />
<glyph unicode="C" horiz-adv-x="628" d="M40 337q0 149 94 248.5t250 99.5q131 0 214 -43l-34 -89q-81 29 -159 29q-61 0 -107.5 -21.5t-72.5 -57.5t-39 -77.5t-13 -88.5t13 -89t39 -78.5t72.5 -58t107.5 -21.5q77 0 162 29l31 -89q-83 -43 -214 -43q-156 0 -250 100t-94 250z" />
<glyph unicode="D" horiz-adv-x="690" d="M65 0v674h251q163 0 253.5 -85.5t90.5 -251.5t-90.5 -251.5t-253.5 -85.5h-251zM195 102h125q93 0 152 58.5t59 176.5q0 121 -58 178t-156 57h-122v-470z" />
<glyph unicode="E" horiz-adv-x="587" d="M65 0v674h470v-102h-339v-181h314v-102h-314v-187h346v-102h-477z" />
<glyph unicode="F" horiz-adv-x="549" d="M65 0v674h449v-102h-317v-181h292v-102h-292v-290z" />
<glyph unicode="G" horiz-adv-x="702" d="M40 337q0 149 101.5 248.5t269.5 99.5q133 0 230 -61l-46 -89q-73 48 -161 48q-67 0 -119 -21.5t-82 -57.5t-45 -78.5t-15 -88.5t15.5 -89t45 -78.5t78.5 -57.5t110 -22q49 0 111 18v161h-135v104h258v-332q-41 -24 -114 -39t-131 -15q-168 0 -269.5 100.5t-101.5 249.5z " />
<glyph unicode="H" horiz-adv-x="683" d="M65 0v674h131v-267h291v267h131v-674h-131v304h-291v-304h-131z" />
<glyph unicode="I" horiz-adv-x="280" d="M75 0v674h130v-674h-130z" />
<glyph unicode="J" horiz-adv-x="450" d="M10 33l31 95q80 -40 137 -40q28 0 50 10q29 17 29 95v481h128v-487q0 -57 -16 -97.5t-45 -62t-62 -31t-73 -9.5t-81 9q-40 8 -98 37z" />
<glyph unicode="K" horiz-adv-x="625" d="M65 0v674h131v-299l227 299h150l-240 -304l284 -370h-157l-210 277l-54 -67v-210h-131z" />
<glyph unicode="L" horiz-adv-x="554" d="M65 0v674h132v-571h317v-103h-449z" />
<glyph unicode="M" horiz-adv-x="875" d="M45 0l35 674h172l186 -492l185 492h173l34 -674h-131l-30 476l-180 -476h-104l-178 476l-30 -476h-132z" />
<glyph unicode="N" horiz-adv-x="689" d="M65 0v674h173l256 -507v507h130v-674h-164l-265 512v-512h-130z" />
<glyph unicode="O" horiz-adv-x="743" d="M40 337q0 163 88.5 255.5t242.5 92.5t243 -92.5t89 -255.5t-89 -256.5t-243 -93.5q-153 0 -242 93.5t-89 256.5zM176 337q0 -110 50.5 -180t144.5 -70q95 0 145.5 70t50.5 180q0 106 -51 177t-145 71t-144.5 -71t-50.5 -177z" />
<glyph unicode="P" horiz-adv-x="603" d="M65 0v674h309q57 0 99.5 -20.5t65 -54.5t33.5 -70t11 -74q0 -12 -2 -29.5t-14 -50.5t-31.5 -59t-60 -46t-94.5 -20h-185v-250h-131zM196 353h171q32 0 53 20.5t28 43t7 42.5q0 47 -27 80t-78 33h-154v-219z" />
<glyph unicode="Q" horiz-adv-x="733" d="M40 337q0 163 88.5 255.5t242.5 92.5t243 -92.5t89 -255.5q0 -99 -39 -176t-106 -123q48 -25 87 -25h50v-98h-47q-32 0 -58 4t-42 8t-33 14t-22.5 14t-19.5 17t-16 15h-86q-148 0 -239.5 94.5t-91.5 255.5zM176 337q0 -110 50 -179t145 -69t145.5 69t50.5 179 q0 106 -51 177t-145 71t-144.5 -71t-50.5 -177z" />
<glyph unicode="R" horiz-adv-x="634" d="M65 0v674h299q64 0 109.5 -20t68 -53.5t32 -68t9.5 -73.5q0 -10 -4 -26.5t-14 -43.5t-36.5 -53t-63.5 -41q49 -17 70 -74l81 -221h-137l-62 171q-16 46 -40 67t-61 21h-120v-259h-131zM196 361h171q47 0 67 31.5t20 65.5q0 48 -23.5 81t-72.5 33h-162v-211z" />
<glyph unicode="S" d="M30 88l54 90q43 -38 106 -61.5t122 -23.5q84 0 113 62q12 31 -3.5 58t-49.5 43l-186 72q-72 28 -105.5 73t-33.5 93q0 88 73.5 139.5t171.5 51.5q61 0 126 -20q60 -21 113 -62l-46 -90q-92 71 -199 71q-42 0 -70.5 -20.5t-33.5 -50.5q-7 -55 75 -87l171 -67 q132 -50 132 -168q0 -94 -73 -148t-176 -54q-87 0 -144 22q-91 34 -137 77z" />
<glyph unicode="T" horiz-adv-x="566" d="M10 572v102h546v-102h-208v-572h-130v572h-208z" />
<glyph unicode="U" horiz-adv-x="708" d="M65 301v373h132v-375q0 -105 37 -153.5t120 -48.5t120.5 48.5t37.5 153.5v375h131v-373q0 -170 -73.5 -242t-215.5 -72q-141 0 -215 72.5t-74 241.5z" />
<glyph unicode="V" horiz-adv-x="654" d="M10 674h133l184 -546l185 546h132l-254 -674h-125z" />
<glyph unicode="W" horiz-adv-x="953" d="M10 674h135l135 -497l133 473h127l133 -474l134 498h136l-206 -674h-127l-133 464l-134 -464h-127z" />
<glyph unicode="X" horiz-adv-x="667" d="M10 0l252 333l-241 341h151l161 -258l162 258h151l-241 -341l252 -333h-152l-172 249l-172 -249h-151z" />
<glyph unicode="Y" horiz-adv-x="671" d="M10 674h151l175 -341l174 341h151l-258 -437v-237h-134v236z" />
<glyph unicode="Z" horiz-adv-x="612" d="M30 0v99l384 473h-368v102h536v-96l-390 -474h373v-104h-535z" />
<glyph unicode="[" horiz-adv-x="328" d="M60 -192v866h208v-89h-89v-688h89v-89h-208z" />
<glyph unicode="\" horiz-adv-x="384" d="M30 674h92l232 -674h-91z" />
<glyph unicode="]" horiz-adv-x="328" d="M60 -103h89v688h-89v89h208v-866h-208v89z" />
<glyph unicode="^" horiz-adv-x="477" d="M40 367l154 307h89l154 -307h-121l-78 185q-62 -146 -78 -185h-120z" />
<glyph unicode="_" horiz-adv-x="645" d="M40 -31h565v-93h-565v93z" />
<glyph unicode="`" horiz-adv-x="314" d="M40 698h141l93 -151h-108z" />
<glyph unicode="a" horiz-adv-x="519" d="M30 132q0 81 81 130.5t224 59.5v12q-1 40 -29 58.5t-68 15t-77 -13.5t-65 -24l-32 76q0 2 21.5 13.5t68 24t96.5 12.5h23.5t51 -7t65 -21.5t51.5 -48.5t23 -82v-337h-132v55q-21 -37 -66 -52.5t-81 -15.5q-34 0 -68 14t-60.5 48.5t-26.5 82.5zM150 136q1 -27 22 -42 t53 -15q10 0 25.5 3.5t36 12t34.5 28t14 45.5v70q-82 -7 -134 -34.5t-51 -67.5z" />
<glyph unicode="b" horiz-adv-x="565" d="M60 0v674h128v-245q19 37 52.5 52.5t65.5 15.5q99 0 161.5 -65.5t62.5 -189.5q0 -125 -58 -190t-153 -65q-12 0 -32.5 3.5t-53 20t-46.5 44.5v-55h-127zM188 172q0 -88 108 -88q53 0 77 45.5t24 112.5q0 159 -118 159q-13 0 -32.5 -7.5t-39 -30t-19.5 -54.5v-137z" />
<glyph unicode="c" horiz-adv-x="478" d="M35 242q0 118 67.5 186.5t184.5 68.5q92 0 161 -36l-26 -88q-71 25 -118 25q-71 0 -107 -44.5t-36 -111.5t36 -112.5t107 -45.5q38 0 118 27l26 -88q-69 -36 -161 -36q-117 0 -184.5 68.5t-67.5 186.5z" />
<glyph unicode="d" horiz-adv-x="565" d="M35 242q0 124 62.5 189.5t161.5 65.5q32 0 65.5 -15.5t52.5 -52.5v245h128v-674h-127v55q-14 -28 -46.5 -44.5t-53 -20t-32.5 -3.5q-95 0 -153 65t-58 190zM168 242q0 -67 24 -112.5t77 -45.5q108 0 108 88v144q0 27 -11 46t-28 26.5t-29 10t-23 2.5q-118 0 -118 -159z " />
<glyph unicode="e" horiz-adv-x="549" d="M35 242q0 112 65 183.5t175 71.5t174.5 -66.5t64.5 -181.5l-3 -51h-350q9 -51 43 -82t89 -31q75 0 162 35l28 -85q-77 -47 -198 -47q-107 0 -178.5 69t-71.5 185zM168 289h221q0 51 -33.5 81t-80.5 30q-43 0 -75 -33.5t-32 -77.5z" />
<glyph unicode="f" horiz-adv-x="291" d="M10 399v85h57v42q0 46 13 78.5t29 47.5t40.5 23.5t36.5 9t29 0.5h3h2q42 0 91 -26l-14 -74q-40 15 -63 15q-39 0 -39 -57v-59h90v-85h-90v-399h-128v399h-57z" />
<glyph unicode="g" horiz-adv-x="567" d="M35 242q0 123 63 189t156 66q8 0 19 -1.5t32 -7t41 -21t33 -38.5v55h128v-514q0 -45 -19.5 -78t-53.5 -50.5t-72 -25.5t-83 -8q-56 0 -110.5 14t-78.5 33l28 85q28 -16 69.5 -27.5t84.5 -14t74.5 19t32.5 66.5v71q-20 -34 -56 -51t-71 -17q-83 0 -150 67.5t-67 187.5z M169 242q0 -158 118 -158q15 0 33 4.5t38 22t20 46.5v155q0 88 -108 88q-53 0 -77 -45.5t-24 -112.5z" />
<glyph unicode="h" horiz-adv-x="564" d="M60 0v674h128v-245q23 37 61.5 52.5t71.5 15.5q183 0 183 -214v-283h-129v283q0 117 -78 117q-14 0 -29.5 -4t-35 -15t-32 -35.5t-12.5 -59.5v-286h-128z" />
<glyph unicode="i" horiz-adv-x="249" d="M60 0v484h129v-484h-129zM60 558v116h129v-116h-129z" />
<glyph unicode="j" horiz-adv-x="257" d="M-50 -166l13 75q45 -17 70 -17q35 0 35 79v513h129l-1 -517q0 -46 -13 -78.5t-29.5 -48t-41 -23.5t-37.5 -8.5t-29 -0.5q-46 0 -96 26zM68 558v116h129v-116h-129z" />
<glyph unicode="k" horiz-adv-x="525" d="M65 0v674h128v-338l143 148h155l-186 -185l210 -299h-144l-150 226l-28 -26v-200h-128z" />
<glyph unicode="l" horiz-adv-x="249" d="M60 0v674h129v-674h-129z" />
<glyph unicode="m" horiz-adv-x="823" d="M60 0v484h123v-65q39 78 133 78q35 0 74.5 -18t59.5 -55q49 73 138 73q175 0 175 -199v-298h-128v282q0 59 -18 88.5t-60 29.5q-9 0 -19.5 -3t-26.5 -11.5t-26 -31t-10 -56.5v-298h-126v297q0 103 -79 103q-32 0 -56.5 -29t-24.5 -97v-274h-129z" />
<glyph unicode="n" horiz-adv-x="564" d="M60 0v484h122v-74q29 53 66 70t91 17q165 0 165 -216v-281h-129v281q0 119 -78 119q-14 0 -29.5 -4.5t-35 -15.5t-32 -36t-12.5 -60v-284h-128z" />
<glyph unicode="o" horiz-adv-x="556" d="M35 242q0 118 65 186.5t177 68.5q113 0 178.5 -68.5t65.5 -186.5t-65.5 -186.5t-178.5 -68.5q-112 0 -177 68.5t-65 186.5zM162 242q0 -65 31 -112.5t84 -47.5t85 48t32 112t-32 112t-85 48t-84 -47.5t-31 -112.5z" />
<glyph unicode="p" horiz-adv-x="565" d="M60 -192v676h127v-55q41 68 140 68q91 0 147 -65t56 -189q0 -125 -59 -190.5t-154 -65.5q-35 0 -72.5 15.5t-56.5 52.5v-247h-128zM188 168q0 -43 33 -64t58 -21q118 0 118 160q0 67 -24 112t-77 45q-108 0 -108 -87v-145z" />
<glyph unicode="q" horiz-adv-x="565" d="M35 243q0 124 56 189t147 65q99 0 140 -68v55h127v-676h-128v247q-19 -37 -56.5 -52.5t-72.5 -15.5q-95 0 -154 65.5t-59 190.5zM168 243q0 -160 118 -160q14 0 32.5 6t38.5 27t20 52v145q0 87 -108 87q-53 0 -77 -45t-24 -112z" />
<glyph unicode="r" horiz-adv-x="365" d="M65 0v484h123v-78q35 86 127 86h38v-100h-54q-52 0 -79.5 -31t-27.5 -83v-278h-127z" />
<glyph unicode="s" horiz-adv-x="476" d="M30 67l52 85q78 -66 169 -66q23 0 42 9.5t26 24.5q3 7 4 12.5t-0.5 10t-3 7.5t-4.5 5.5t-5 4t-5 2.5l-3 2q-1 0 -11 4q-50 19 -142 53q-106 44 -106 127q0 69 57 109t136 40q103 0 195 -62l-46 -86q-3 1 -15.5 8.5t-17 10t-17 8.5t-19 9t-18 7.5t-20 6.5t-18.5 3.5 t-19 1.5q-28 0 -49 -14.5t-23 -32.5q-1 -11 2 -18.5t15.5 -14.5t20.5 -10t35 -12q34 -11 101 -36q103 -44 103 -126q0 -35 -16 -65q-20 -41 -67.5 -63.5t-113.5 -22.5q-54 0 -110 17q-62 18 -109 61z" />
<glyph unicode="t" horiz-adv-x="353" d="M12 399v85h76v116h127v-116h106v-85h-106v-250q0 -65 44 -65q19 0 64 14l10 -86q-47 -24 -92 -24q-18 0 -31 0.5t-38 8.5t-41.5 23.5t-29.5 48t-13 78.5v252h-76z" />
<glyph unicode="u" horiz-adv-x="564" d="M60 203v281h128v-281q0 -120 79 -120q11 0 24 3t34.5 11.5t35.5 31t14 56.5v299h129v-484h-123v55q-20 -30 -55 -46.5t-53 -19t-31 -2.5q-75 0 -128.5 52t-53.5 164z" />
<glyph unicode="v" horiz-adv-x="560" d="M10 484h135l135 -367l135 367h135l-206 -484h-128z" />
<glyph unicode="w" horiz-adv-x="806" d="M10 484h135l96 -342l95 342h134l96 -341l96 341h134l-168 -484h-115l-110 343l-108 -343h-116z" />
<glyph unicode="x" horiz-adv-x="549" d="M10 0l186 245l-175 239h146l107 -168l107 168h145l-174 -239l187 -245h-145l-120 173l-119 -173h-145z" />
<glyph unicode="y" horiz-adv-x="560" d="M10 484h135l138 -327q43 106 132 327h135l-252 -594q-14 -33 -43.5 -53t-51 -24.5t-41.5 -4.5q-30 0 -79 18l15 95q3 -1 13 -6t15.5 -7t15.5 -4t17 0t15 8t14 17l33 81q-15 34 -37 84t-69.5 156t-104.5 234z" />
<glyph unicode="z" horiz-adv-x="479" d="M25 0v83l270 305h-260v96h419v-83l-270 -305h261v-96h-420z" />
<glyph unicode="{" horiz-adv-x="376" d="M60 209v64q47 5 62.5 31.5t15.5 77.5l-1 175q0 50 38.5 83.5t82.5 33.5h78v-85h-50q-41 0 -41 -51v-169q1 -45 -26 -79.5t-60 -48.5q31 -10 59 -46t27 -82v-169q0 -51 41 -51h50v-85h-78q-44 0 -82.5 33.5t-38.5 83.5l1 175q0 51 -15.5 77.5t-62.5 31.5z" />
<glyph unicode="|" horiz-adv-x="219" d="M60 -88v840h99v-840h-99z" />
<glyph unicode="}" horiz-adv-x="376" d="M40 -107h50q41 0 41 51v169q-1 46 27 82t59 46q-33 14 -60 48.5t-26 79.5v169q0 51 -41 51h-50v85h78q44 0 82.5 -33.5t38.5 -83.5l-1 -175q0 -51 15.5 -77.5t62.5 -31.5v-64q-47 -5 -62.5 -31.5t-15.5 -77.5l1 -175q0 -50 -38.5 -83.5t-82.5 -33.5h-78v85z" />
<glyph unicode="~" horiz-adv-x="504" d="M40 208q12 48 20 69.5t23 45.5t38 32.5t59 8.5q26 0 73 -19t68 -19q13 0 29.5 13t26.5 40h87q-10 -33 -14 -45.5t-13 -36t-18 -32.5t-23 -20.5t-33 -15.5t-44 -4q-26 0 -73 19.5t-66 19.5q-12 0 -29 -15t-27 -41h-84z" />
<glyph unicode="&#xa1;" horiz-adv-x="269" d="M70 378v106h129v-106h-129zM74 -192l8 504h105l8 -504h-121z" />
<glyph unicode="&#xa2;" horiz-adv-x="478" d="M35 242q0 108 56.5 175t157.5 78v77h84v-78q65 -8 115 -33l-26 -88q-71 25 -118 25q-71 0 -107 -44.5t-36 -111.5t36 -112.5t107 -45.5q38 0 118 27l26 -88q-46 -24 -115 -33v-86h-84v85q-101 11 -157.5 77.5t-56.5 175.5z" />
<glyph unicode="&#xa3;" horiz-adv-x="546" d="M40 330v90h79v28q0 105 53 160t126 66q6 3 52 3q89 0 153 -43l-34 -82q-55 33 -119 33q-50 0 -75.5 -37.5t-25.5 -99.5v-28h164v-90h-164v-229h257v-101h-450v101h63v229h-79z" />
<glyph unicode="&#xa4;" horiz-adv-x="540" d="M40 142l57 58q-27 44 -27 94q0 55 30 95q-9 10 -30.5 31.5l-29.5 29.5l74 79l66 -66q44 19 86 19q41 0 87 -19l65 64l82 -84l-64 -63q20 -39 20 -79q0 -42 -25 -92l62 -60l-81 -78l-59 60q-45 -23 -88 -23q-44 0 -84 16l-67 -64zM179 294q0 -43 26 -65.5t57 -22.5 q32 0 59.5 23.5t27.5 67.5q0 41 -27.5 64t-59.5 23q-31 0 -57 -23.5t-26 -66.5z" />
<glyph unicode="&#xa5;" horiz-adv-x="592" d="M14 674h141l141 -295l142 295h140l-191 -344h128v-85h-156v-52h156v-85h-156v-108h-125v108h-159v85h159v52h-159v85h130z" />
<glyph unicode="&#xa6;" horiz-adv-x="219" d="M60 -110v386h99v-386h-99zM60 363v393h99v-393h-99z" />
<glyph unicode="&#xa7;" horiz-adv-x="474" d="M40 63l47 76q70 -59 153 -59q42 0 59 35q9 32 -21 44l-98 40q-128 52 -128 141q0 30 16.5 60t43.5 49q-51 47 -42 121q8 51 55 83t118 32q47 0 92 -14q43 -17 85 -46l-43 -76q-64 40 -129 40q-26 0 -42.5 -11.5t-18.5 -28.5q-1 -20 10.5 -28.5t51.5 -22.5q1 0 2.5 -1 t4 -2t8.5 -3t14 -5.5t23.5 -9.5t35.5 -14q33 -15 55 -34q65 -63 26 -157q-14 -29 -41 -47q41 -38 41 -92q0 -70 -48 -108t-130 -38q-118 0 -200 76zM203 403q-32 -22 -35.5 -46t15.5 -43t53 -32l43 -16q17 11 29 30t9.5 39.5t-24.5 32.5z" />
<glyph unicode="&#xa8;" horiz-adv-x="380" d="M40 564v116h123v-116h-123zM217 564v116h123v-116h-123z" />
<glyph unicode="&#xa9;" horiz-adv-x="790" d="M40 336q0 145 104 247t251 102t251 -102t104 -247t-104 -247t-251 -102t-251 102t-104 247zM109 335q0 -118 84.5 -201t204.5 -83t204.5 83t84.5 201t-84.5 201t-204.5 83t-204.5 -83t-84.5 -201zM201 334q0 87 54.5 144.5t144.5 57.5q78 0 121 -23l-20 -51 q-42 17 -89 17q-72 0 -105 -42t-33 -103q0 -62 32.5 -103.5t104.5 -41.5q46 0 92 16l18 -50q-43 -23 -121 -23q-90 0 -144.5 57.5t-54.5 144.5z" />
<glyph unicode="&#xaa;" horiz-adv-x="364" d="M40 262v79h284v-79h-284zM40 485q0 48 51 76t140 37v11q-1 41 -49 41q-40 0 -94 -27l-23 54q0 1 14 9t44 16.5t63 8.5q0 -1 7.5 0t20 -1t26.5 -4.5t29 -10t27 -17.5t19.5 -27.5t7.5 -39.5v-211h-94v34q-16 -22 -46.5 -32t-52.5 -10q-30 0 -60 24.5t-30 68.5zM127 488 q2 -32 39 -32q9 0 22 3t28 15.5t15 31.5v40q-45 -5 -75 -21t-29 -37z" />
<glyph unicode="&#xab;" horiz-adv-x="558" d="M50 325l131 232h118l-130 -235l135 -230h-123zM254 325l131 232h118l-130 -235l135 -230h-123z" />
<glyph unicode="&#xac;" horiz-adv-x="573" d="M35 274v109h503v-226h-120v117h-383z" />
<glyph unicode="&#xad;" horiz-adv-x="441" d="M40 203v115h361v-115h-361z" />
<glyph unicode="&#xae;" horiz-adv-x="790" d="M40 336q0 145 104 247t251 102t251 -102t104 -247t-104 -247t-251 -102t-251 102t-104 247zM109 335q0 -118 84.5 -201t204.5 -83t204.5 83t84.5 201t-84.5 201t-204.5 83t-204.5 -83t-84.5 -201zM245 145v390h173q69 0 96.5 -36t27.5 -87q0 -8 -1.5 -16t-6.5 -25 t-20 -31.5t-38 -22.5q23 -11 37 -46l53 -126h-74l-53 123q-15 28 -43 28h-81v-151h-70zM315 353h104q30 0 42 18.5t12 40.5q0 68 -59 68h-99v-127z" />
<glyph unicode="&#xaf;" horiz-adv-x="347" d="M40 577v97h267v-97h-267z" />
<glyph unicode="&#xb0;" horiz-adv-x="364" d="M40 521q0 60 41.5 101.5t100.5 41.5t100.5 -41.5t41.5 -101.5q0 -59 -41.5 -100.5t-100.5 -41.5t-100.5 41.5t-41.5 100.5zM126 521q0 -24 16.5 -43t39.5 -19t39.5 19t16.5 43q0 25 -16.5 44t-39.5 19t-39.5 -19t-16.5 -44z" />
<glyph unicode="&#xb1;" horiz-adv-x="584" d="M40 0v99h504v-99h-504zM40 324v99h198v179h109v-179h197v-99h-197v-178h-109v178h-198z" />
<glyph unicode="&#xb2;" horiz-adv-x="385" d="M44 450v41q0 46 32.5 79.5t92.5 71.5q22 12 35 21t26 24t13 29q0 20 -15.5 33.5t-41.5 13.5t-53 -16.5t-42 -35.5l-38 52l2 4q63 66 134 66q58 0 98 -33t40 -87q0 -30 -26 -59t-58 -48t-66 -43.5t-45 -43.5h189v-69h-277z" />
<glyph unicode="&#xb3;" horiz-adv-x="344" d="M21 500l33 54q53 -47 106 -47q24 0 38.5 15.5t14.5 35.5q0 21 -15.5 38t-40.5 17h-52v62h50q24 0 39 15t15 33q0 19 -14.5 34.5t-36.5 15.5q-48 0 -91 -50l-35 54q46 59 128 59q57 1 95.5 -29t38.5 -83q0 -19 -14 -42t-42 -35q32 -10 47 -37t15 -51q0 -52 -41.5 -84.5 t-96.5 -32.5q-80 0 -141 58z" />
<glyph unicode="&#xb4;" horiz-adv-x="314" d="M40 547l93 151h141l-126 -151h-108z" />
<glyph unicode="&#xb6;" horiz-adv-x="541" d="M30 478q0 81 60.5 138.5t145.5 57.5h245v-866h-100v788h-69v-788h-100v476q-78 8 -130 63t-52 131z" />
<glyph unicode="&#xb7;" horiz-adv-x="237" d="M50 249v117h137v-117h-137z" />
<glyph unicode="&#xb8;" horiz-adv-x="276" d="M40 -88l47 -13q61 -15 61 13q0 23 -53 98h85q35 -41 48 -84q19 -62 -11 -97t-95 -28q-43 5 -82 23v88z" />
<glyph unicode="&#xb9;" horiz-adv-x="276" d="M26 744l98 86h71v-380h-84v291l-50 -44z" />
<glyph unicode="&#xba;" horiz-adv-x="391" d="M40 551q0 75 42 118t113 43q72 0 114 -43t42 -118q0 -73 -42 -116t-114 -43q-71 0 -113 43t-42 116zM41 262v79h303v-79h-303zM132 551q0 -38 17 -65.5t46 -27.5t47 28t18 65q0 38 -18 66.5t-47 28.5t-46 -28t-17 -67z" />
<glyph unicode="&#xbb;" horiz-adv-x="558" d="M50 92l135 230l-130 235h118l131 -232l-131 -233h-123zM254 92l135 230l-130 235h118l131 -232l-131 -233h-123z" />
<glyph unicode="&#xbc;" horiz-adv-x="772" d="M60 588l98 86h71v-380h-84v291l-50 -44zM124 0l393 674h65l-392 -674h-66zM410 75v56q54 114 172 249h78v-243h52v-62h-52v-75h-82v75h-168zM486 137h92v140q-71 -83 -92 -140z" />
<glyph unicode="&#xbd;" horiz-adv-x="799" d="M60 588l98 86h71v-380h-84v291l-50 -44zM124 0l393 674h65l-392 -674h-66zM456 0v41q0 46 32.5 79.5t92.5 71.5q22 12 35 21t26 24t13 29q0 20 -15.5 33.5t-41.5 13.5t-53 -16.5t-42 -35.5l-38 52l2 4q63 66 134 66q58 0 98 -33t40 -87q0 -30 -26 -59t-58 -48t-66 -43.5 t-45 -43.5h189v-69h-277z" />
<glyph unicode="&#xbe;" horiz-adv-x="815" d="M60 344l33 54q53 -47 106 -47q24 0 38.5 15.5t14.5 35.5q0 21 -15.5 38t-40.5 17h-52v62h50q24 0 39 15t15 33q0 19 -14.5 34.5t-36.5 15.5q-48 0 -91 -50l-35 54q46 59 128 59q57 1 95.5 -29t38.5 -83q0 -19 -14 -42t-42 -35q32 -10 47 -37t15 -51q0 -52 -41.5 -84.5 t-96.5 -32.5q-80 0 -141 58zM198 0l393 674h65l-392 -674h-66zM453 75v56q54 114 172 249h78v-243h52v-62h-52v-75h-82v75h-168zM529 137h92v140q-71 -83 -92 -140z" />
<glyph unicode="&#xbf;" horiz-adv-x="555" d="M40 0q0 87 103 174q52 42 64 60q20 29 20 80h120q0 -42 -3.5 -66t-21.5 -51t-38 -46t-70 -64q-46 -40 -46 -93q0 -39 28.5 -64t78.5 -25q51 0 88.5 29.5t56.5 62.5l70 -68q-10 -18 -24.5 -35.5t-40.5 -41t-66.5 -38t-87.5 -14.5q-99 0 -165 51.5t-66 148.5zM221 378v106 h129v-106h-129z" />
<glyph unicode="&#xc0;" horiz-adv-x="705" d="M10 0l280 674h125l280 -674h-138l-62 152h-287l-60 -152h-138zM167 888h141l93 -151h-108zM246 253h212l-105 292z" />
<glyph unicode="&#xc1;" horiz-adv-x="705" d="M10 0l280 674h125l280 -674h-138l-62 152h-287l-60 -152h-138zM246 253h212l-105 292zM297 737l93 151h141l-126 -151h-108z" />
<glyph unicode="&#xc2;" horiz-adv-x="705" d="M10 0l280 674h125l280 -674h-138l-62 152h-287l-60 -152h-138zM180 735l101 153h142l102 -153h-104l-69 83l-68 -83h-104zM246 253h212l-105 292z" />
<glyph unicode="&#xc3;" horiz-adv-x="705" d="M10 0l280 674h125l280 -674h-138l-62 152h-287l-60 -152h-138zM198 744q3 62 23.5 98t74.5 36q18 0 50.5 -18t51.5 -18q20 0 29 43h79q-3 -62 -23.5 -98t-74.5 -36q-18 0 -50.5 18t-51.5 18q-22 0 -30 -43h-78zM246 253h212l-105 292z" />
<glyph unicode="&#xc4;" horiz-adv-x="705" d="M10 0l280 674h125l280 -674h-138l-62 152h-287l-60 -152h-138zM202 754v116h123v-116h-123zM246 253h212l-105 292zM379 754v116h123v-116h-123z" />
<glyph unicode="&#xc5;" horiz-adv-x="705" d="M10 0l280 674h125l280 -674h-138l-62 152h-287l-60 -152h-138zM236 849q0 48 29 80t87 32q62 0 89.5 -31.5t27.5 -80.5q0 -48 -27.5 -79t-89.5 -31q-58 0 -87 32t-29 78zM246 253h212l-105 292zM308 850q0 -42 44 -42q45 0 45 42t-45 42q-44 0 -44 -42z" />
<glyph unicode="&#xc6;" horiz-adv-x="954" d="M10 0l338 674h554v-102h-338v-181h314v-102h-315v-187h346v-102h-477v152h-203l-74 -152h-145zM269 253h163v329z" />
<glyph unicode="&#xc7;" horiz-adv-x="628" d="M40 337q0 149 94 248.5t250 99.5q131 0 214 -43l-34 -89q-81 29 -159 29q-61 0 -107.5 -21.5t-72.5 -57.5t-39 -77.5t-13 -88.5t13 -89t39 -78.5t72.5 -58t107.5 -21.5q77 0 162 29l31 -89q-72 -37 -186 -42q24 -36 32 -62q19 -62 -11 -97t-95 -28q-43 5 -82 23v88 l47 -13q21 -5 34.5 -5.5t19.5 4.5t6.5 13t-5 21t-13.5 27t-21 33q-130 19 -207 115t-77 230z" />
<glyph unicode="&#xc8;" horiz-adv-x="587" d="M65 0v674h470v-102h-339v-181h314v-102h-314v-187h346v-102h-477zM142 888h141l93 -151h-108z" />
<glyph unicode="&#xc9;" horiz-adv-x="587" d="M65 0v674h470v-102h-339v-181h314v-102h-314v-187h346v-102h-477zM220 737l93 151h141l-126 -151h-108z" />
<glyph unicode="&#xca;" horiz-adv-x="587" d="M65 0v674h470v-102h-339v-181h314v-102h-314v-187h346v-102h-477zM121 735l101 153h142l102 -153h-104l-69 83l-68 -83h-104z" />
<glyph unicode="&#xcb;" horiz-adv-x="587" d="M65 0v674h470v-102h-339v-181h314v-102h-314v-187h346v-102h-477zM143 754v116h123v-116h-123zM320 754v116h123v-116h-123z" />
<glyph unicode="&#xcc;" horiz-adv-x="280" d="M-29 888h141l93 -151h-108zM75 0v674h130v-674h-130z" />
<glyph unicode="&#xcd;" horiz-adv-x="280" d="M75 0v674h130v-674h-130zM77 737l93 151h141l-126 -151h-108z" />
<glyph unicode="&#xce;" horiz-adv-x="280" d="M-32 735l101 153h142l102 -153h-104l-69 83l-68 -83h-104zM75 0v674h130v-674h-130z" />
<glyph unicode="&#xcf;" horiz-adv-x="280" d="M-10 754v116h123v-116h-123zM75 0v674h130v-674h-130zM167 754v116h123v-116h-123z" />
<glyph unicode="&#xd0;" horiz-adv-x="742" d="M10 288v103h97v283h252q162 0 252.5 -85.5t90.5 -251.5t-90.5 -251.5t-252.5 -85.5h-252v288h-97zM237 102h126q93 0 151.5 58.5t58.5 176.5q0 121 -57.5 178t-155.5 57h-123v-181h198v-103h-198v-186z" />
<glyph unicode="&#xd1;" horiz-adv-x="689" d="M65 0v674h173l256 -507v507h130v-674h-164l-265 512v-512h-130zM190 744q3 62 23.5 98t74.5 36q18 0 50.5 -18t51.5 -18q20 0 29 43h79q-3 -62 -23.5 -98t-74.5 -36q-18 0 -50.5 18t-51.5 18q-22 0 -30 -43h-78z" />
<glyph unicode="&#xd2;" horiz-adv-x="743" d="M40 337q0 163 88.5 255.5t242.5 92.5t243 -92.5t89 -255.5t-89 -256.5t-243 -93.5q-153 0 -242 93.5t-89 256.5zM176 337q0 -110 50.5 -180t144.5 -70q95 0 145.5 70t50.5 180q0 106 -51 177t-145 71t-144.5 -71t-50.5 -177zM180 888h141l93 -151h-108z" />
<glyph unicode="&#xd3;" horiz-adv-x="743" d="M40 337q0 163 88.5 255.5t242.5 92.5t243 -92.5t89 -255.5t-89 -256.5t-243 -93.5q-153 0 -242 93.5t-89 256.5zM176 337q0 -110 50.5 -180t144.5 -70q95 0 145.5 70t50.5 180q0 106 -51 177t-145 71t-144.5 -71t-50.5 -177zM306 737l93 151h141l-126 -151h-108z" />
<glyph unicode="&#xd4;" horiz-adv-x="743" d="M40 337q0 163 88.5 255.5t242.5 92.5t243 -92.5t89 -255.5t-89 -256.5t-243 -93.5q-153 0 -242 93.5t-89 256.5zM176 337q0 -110 50.5 -180t144.5 -70q95 0 145.5 70t50.5 180q0 106 -51 177t-145 71t-144.5 -71t-50.5 -177zM199 735l101 153h142l102 -153h-104l-69 83 l-68 -83h-104z" />
<glyph unicode="&#xd5;" horiz-adv-x="743" d="M40 337q0 163 88.5 255.5t242.5 92.5t243 -92.5t89 -255.5t-89 -256.5t-243 -93.5q-153 0 -242 93.5t-89 256.5zM176 337q0 -110 50.5 -180t144.5 -70q95 0 145.5 70t50.5 180q0 106 -51 177t-145 71t-144.5 -71t-50.5 -177zM217 744q3 62 23.5 98t74.5 36q18 0 50.5 -18 t51.5 -18q20 0 29 43h79q-3 -62 -23.5 -98t-74.5 -36q-18 0 -50.5 18t-51.5 18q-22 0 -30 -43h-78z" />
<glyph unicode="&#xd6;" horiz-adv-x="743" d="M40 337q0 163 88.5 255.5t242.5 92.5t243 -92.5t89 -255.5t-89 -256.5t-243 -93.5q-153 0 -242 93.5t-89 256.5zM176 337q0 -110 50.5 -180t144.5 -70q95 0 145.5 70t50.5 180q0 106 -51 177t-145 71t-144.5 -71t-50.5 -177zM221 754v116h123v-116h-123zM398 754v116h123 v-116h-123z" />
<glyph unicode="&#xd7;" horiz-adv-x="588" d="M40 134l183 183l-183 183l71 72l183 -184l183 183l71 -71l-183 -183l183 -182l-71 -71l-183 182l-183 -183z" />
<glyph unicode="&#xd8;" horiz-adv-x="743" d="M40 337q0 163 88.5 255.5t242.5 92.5q83 0 147 -27l40 64h96l-66 -106q115 -95 115 -279q0 -163 -89 -256.5t-243 -93.5q-89 0 -161 33l-53 -75h-98l83 123q-102 94 -102 269zM176 337q0 -95 36 -159l246 386q-40 21 -87 21q-94 0 -144.5 -71t-50.5 -177zM269 115 q44 -28 102 -28q95 0 145.5 70t50.5 180q0 104 -47 171z" />
<glyph unicode="&#xd9;" horiz-adv-x="708" d="M65 301v373h132v-375q0 -105 37 -153.5t120 -48.5t120.5 48.5t37.5 153.5v375h131v-373q0 -170 -73.5 -242t-215.5 -72q-141 0 -215 72.5t-74 241.5zM201 888h141l93 -151h-108z" />
<glyph unicode="&#xda;" horiz-adv-x="708" d="M65 301v373h132v-375q0 -105 37 -153.5t120 -48.5t120.5 48.5t37.5 153.5v375h131v-373q0 -170 -73.5 -242t-215.5 -72q-141 0 -215 72.5t-74 241.5zM259 737l93 151h141l-126 -151h-108z" />
<glyph unicode="&#xdb;" horiz-adv-x="708" d="M65 301v373h132v-375q0 -105 37 -153.5t120 -48.5t120.5 48.5t37.5 153.5v375h131v-373q0 -170 -73.5 -242t-215.5 -72q-141 0 -215 72.5t-74 241.5zM181 735l101 153h142l102 -153h-104l-69 83l-68 -83h-104z" />
<glyph unicode="&#xdc;" horiz-adv-x="708" d="M65 301v373h132v-375q0 -105 37 -153.5t120 -48.5t120.5 48.5t37.5 153.5v375h131v-373q0 -170 -73.5 -242t-215.5 -72q-141 0 -215 72.5t-74 241.5zM204 754v116h123v-116h-123zM381 754v116h123v-116h-123z" />
<glyph unicode="&#xdd;" horiz-adv-x="671" d="M10 674h151l175 -341l174 341h151l-258 -437v-237h-134v236zM259 737l93 151h141l-126 -151h-108z" />
<glyph unicode="&#xde;" horiz-adv-x="579" d="M65 0v674h131v-131q20 27 55.5 41t72.5 14q94 0 157 -66t63 -191q0 -126 -65 -191t-172 -65q-26 0 -59 11t-53 38v-134h-130zM196 269q0 -87 110 -87q53 0 77.5 45.5t24.5 113.5q0 161 -120 161q-25 0 -58.5 -23t-33.5 -70v-140z" />
<glyph unicode="&#xdf;" horiz-adv-x="587" d="M65 0v456q0 32 5.5 60t15 49.5t23 39.5t28.5 30.5t33 22.5t35 15.5t35 8.5t49 3q39 0 76 -9.5t70.5 -29.5t54 -56.5t20.5 -85.5q0 -42 -26.5 -77.5t-78.5 -50.5q46 -4 80 -36.5t48 -70t14 -72.5q0 -79 -62 -138t-173 -59h-71v94h71q53 0 85.5 31t32.5 72q0 53 -35 91.5 t-94 39.5h-17v94h17q31 0 49.5 9.5t26 27t7.5 45.5q0 37 -26.5 63t-68.5 26q-47 0 -70.5 -37t-23.5 -100v-456h-130z" />
<glyph unicode="&#xe0;" horiz-adv-x="519" d="M30 132q0 81 81 130.5t224 59.5v12q-1 40 -29 58.5t-68 15t-77 -13.5t-65 -24l-32 76q0 2 21.5 13.5t68 24t96.5 12.5h23.5t51 -7t65 -21.5t51.5 -48.5t23 -82v-337h-132v55q-21 -37 -66 -52.5t-81 -15.5q-34 0 -68 14t-60.5 48.5t-26.5 82.5zM89 698h141l93 -151h-108z M150 136q1 -27 22 -42t53 -15q10 0 25.5 3.5t36 12t34.5 28t14 45.5v70q-82 -7 -134 -34.5t-51 -67.5z" />
<glyph unicode="&#xe1;" horiz-adv-x="519" d="M30 132q0 81 81 130.5t224 59.5v12q-1 40 -29 58.5t-68 15t-77 -13.5t-65 -24l-32 76q0 2 21.5 13.5t68 24t96.5 12.5h23.5t51 -7t65 -21.5t51.5 -48.5t23 -82v-337h-132v55q-21 -37 -66 -52.5t-81 -15.5q-34 0 -68 14t-60.5 48.5t-26.5 82.5zM150 136q1 -27 22 -42 t53 -15q10 0 25.5 3.5t36 12t34.5 28t14 45.5v70q-82 -7 -134 -34.5t-51 -67.5zM178 547l93 151h141l-126 -151h-108z" />
<glyph unicode="&#xe2;" horiz-adv-x="519" d="M30 132q0 81 81 130.5t224 59.5v12q-1 40 -29 58.5t-68 15t-77 -13.5t-65 -24l-32 76q0 2 21.5 13.5t68 24t96.5 12.5h23.5t51 -7t65 -21.5t51.5 -48.5t23 -82v-337h-132v55q-21 -37 -66 -52.5t-81 -15.5q-34 0 -68 14t-60.5 48.5t-26.5 82.5zM83 545l101 153h142 l102 -153h-104l-69 83l-68 -83h-104zM150 136q1 -27 22 -42t53 -15q10 0 25.5 3.5t36 12t34.5 28t14 45.5v70q-82 -7 -134 -34.5t-51 -67.5z" />
<glyph unicode="&#xe3;" horiz-adv-x="526" d="M37 132q0 81 81 130.5t224 59.5v12q-1 40 -29 58.5t-68 15t-77 -13.5t-65 -24l-32 76q0 2 21.5 13.5t68 24t96.5 12.5h23.5t51 -7t65 -21.5t51.5 -48.5t23 -82v-337h-132v55q-21 -37 -66 -52.5t-81 -15.5q-34 0 -68 14t-60.5 48.5t-26.5 82.5zM109 554q3 62 23.5 98 t74.5 36q18 0 50.5 -18t51.5 -18q20 0 29 43h79q-3 -62 -23.5 -98t-74.5 -36q-18 0 -50.5 18t-51.5 18q-22 0 -30 -43h-78zM157 136q1 -27 22 -42t53 -15q10 0 25.5 3.5t36 12t34.5 28t14 45.5v70q-82 -7 -134 -34.5t-51 -67.5z" />
<glyph unicode="&#xe4;" horiz-adv-x="519" d="M30 132q0 81 81 130.5t224 59.5v12q-1 40 -29 58.5t-68 15t-77 -13.5t-65 -24l-32 76q0 2 21.5 13.5t68 24t96.5 12.5h23.5t51 -7t65 -21.5t51.5 -48.5t23 -82v-337h-132v55q-21 -37 -66 -52.5t-81 -15.5q-34 0 -68 14t-60.5 48.5t-26.5 82.5zM106 564v116h123v-116h-123 zM150 136q1 -27 22 -42t53 -15q10 0 25.5 3.5t36 12t34.5 28t14 45.5v70q-82 -7 -134 -34.5t-51 -67.5zM283 564v116h123v-116h-123z" />
<glyph unicode="&#xe5;" horiz-adv-x="526" d="M37 132q0 81 81 130.5t224 59.5v12q-1 40 -29 58.5t-68 15t-77 -13.5t-65 -24l-32 76q0 2 21.5 13.5t68 24t96.5 12.5h23.5t51 -7t65 -21.5t51.5 -48.5t23 -82v-337h-132v55q-21 -37 -66 -52.5t-81 -15.5q-34 0 -68 14t-60.5 48.5t-26.5 82.5zM146 659q0 48 29 80t87 32 q62 0 89.5 -31.5t27.5 -80.5q0 -48 -27.5 -79t-89.5 -31q-58 0 -87 32t-29 78zM157 136q1 -27 22 -42t53 -15q10 0 25.5 3.5t36 12t34.5 28t14 45.5v70q-82 -7 -134 -34.5t-51 -67.5zM218 660q0 -42 44 -42q45 0 45 42t-45 42q-44 0 -44 -42z" />
<glyph unicode="&#xe6;" horiz-adv-x="852" d="M37 132q0 81 81 130.5t224 59.5v12q-1 40 -29 58.5t-68 15t-77 -13.5t-65 -24l-32 76q0 2 21.5 13.5t68 24t96.5 12.5q13 1 33 1t64 -16.5t68 -51.5q56 68 171 68q96 0 160 -67.5t64 -180.5l-3 -51h-350q9 -51 43 -82t89 -31q75 0 162 35l28 -85q-77 -47 -198 -47 q-154 0 -211 88q-45 -89 -185 -89q-34 0 -68 14t-60.5 48.5t-26.5 82.5zM157 136q1 -27 22 -42t53 -15q10 0 25.5 3.5t36 12t34.5 28t14 45.5v69q-80 -7 -133 -34.5t-52 -66.5zM464 289h228q0 51 -33.5 81t-80.5 30q-43 0 -78 -32.5t-36 -74.5v-4z" />
<glyph unicode="&#xe7;" horiz-adv-x="478" d="M35 242q0 118 67.5 186.5t184.5 68.5q92 0 161 -36l-26 -88q-71 25 -118 25q-71 0 -107 -44.5t-36 -111.5t36 -112.5t107 -45.5q38 0 118 27l26 -88q-57 -30 -138 -35q24 -36 32 -62q19 -62 -11 -97t-95 -28q-43 5 -82 23v88l47 -13q21 -5 35 -5.5t19.5 5t6 13t-5.5 21 t-14.5 27.5t-21.5 34q-87 17 -136 82.5t-49 165.5z" />
<glyph unicode="&#xe8;" horiz-adv-x="549" d="M35 242q0 112 65 183.5t175 71.5t174.5 -66.5t64.5 -181.5l-3 -51h-350q9 -51 43 -82t89 -31q75 0 162 35l28 -85q-77 -47 -198 -47q-107 0 -178.5 69t-71.5 185zM102 698h141l93 -151h-108zM168 289h221q0 51 -33.5 81t-80.5 30q-43 0 -75 -33.5t-32 -77.5z" />
<glyph unicode="&#xe9;" horiz-adv-x="549" d="M35 242q0 112 65 183.5t175 71.5t174.5 -66.5t64.5 -181.5l-3 -51h-350q9 -51 43 -82t89 -31q75 0 162 35l28 -85q-77 -47 -198 -47q-107 0 -178.5 69t-71.5 185zM168 289h221q0 51 -33.5 81t-80.5 30q-43 0 -75 -33.5t-32 -77.5zM199 547l93 151h141l-126 -151h-108z " />
<glyph unicode="&#xea;" horiz-adv-x="549" d="M35 242q0 112 65 183.5t175 71.5t174.5 -66.5t64.5 -181.5l-3 -51h-350q9 -51 43 -82t89 -31q75 0 162 35l28 -85q-77 -47 -198 -47q-107 0 -178.5 69t-71.5 185zM102 545l101 153h142l102 -153h-104l-69 83l-68 -83h-104zM168 289h221q0 51 -33.5 81t-80.5 30 q-43 0 -75 -33.5t-32 -77.5z" />
<glyph unicode="&#xeb;" horiz-adv-x="549" d="M35 242q0 112 65 183.5t175 71.5t174.5 -66.5t64.5 -181.5l-3 -51h-350q9 -51 43 -82t89 -31q75 0 162 35l28 -85q-77 -47 -198 -47q-107 0 -178.5 69t-71.5 185zM124 564v116h123v-116h-123zM168 289h221q0 51 -33.5 81t-80.5 30q-43 0 -75 -33.5t-32 -77.5zM301 564 v116h123v-116h-123z" />
<glyph unicode="&#xec;" horiz-adv-x="249" d="M-45 698h141l93 -151h-108zM60 0l1 484h128v-484h-129z" />
<glyph unicode="&#xed;" horiz-adv-x="249" d="M60 0l1 484h128v-484h-129zM61 547l93 151h141l-126 -151h-108z" />
<glyph unicode="&#xee;" horiz-adv-x="249" d="M-48 545l101 153h142l102 -153h-104l-69 83l-68 -83h-104zM60 0l1 484h128v-484h-129z" />
<glyph unicode="&#xef;" horiz-adv-x="249" d="M-25 564v116h123v-116h-123zM60 0l1 484h128v-484h-129zM152 564v116h123v-116h-123z" />
<glyph unicode="&#xf0;" horiz-adv-x="545" d="M30 240q0 118 83.5 189.5t183.5 49.5q-39 39 -98 76l-77 -79l-51 51l61 64q-26 17 -89 41l91 82l80 -40l65 65l59 -54l-58 -55q102 -78 168.5 -178t66.5 -212q0 -117 -65.5 -184t-177.5 -67t-177 67t-65 184zM165 240q0 -60 28.5 -104.5t78.5 -44.5t79 44.5t29 104.5 t-29 105.5t-79 45.5t-78.5 -44.5t-28.5 -106.5z" />
<glyph unicode="&#xf1;" horiz-adv-x="564" d="M60 0v484h122v-74q29 53 66 70t91 17q165 0 165 -216v-281h-129v281q0 119 -78 119q-14 0 -29.5 -4.5t-35 -15.5t-32 -36t-12.5 -60v-284h-128zM128 554q3 62 23.5 98t74.5 36q18 0 50.5 -18t51.5 -18q20 0 29 43h79q-3 -62 -23.5 -98t-74.5 -36q-18 0 -50.5 18t-51.5 18 q-22 0 -30 -43h-78z" />
<glyph unicode="&#xf2;" horiz-adv-x="556" d="M35 242q0 118 65 186.5t177 68.5q113 0 178.5 -68.5t65.5 -186.5t-65.5 -186.5t-178.5 -68.5q-112 0 -177 68.5t-65 186.5zM83 698h141l93 -151h-108zM162 242q0 -65 31 -112.5t84 -47.5t85 48t32 112t-32 112t-85 48t-84 -47.5t-31 -112.5z" />
<glyph unicode="&#xf3;" horiz-adv-x="556" d="M35 242q0 118 65 186.5t177 68.5q113 0 178.5 -68.5t65.5 -186.5t-65.5 -186.5t-178.5 -68.5q-112 0 -177 68.5t-65 186.5zM162 242q0 -65 31 -112.5t84 -47.5t85 48t32 112t-32 112t-85 48t-84 -47.5t-31 -112.5zM223 547l93 151h141l-126 -151h-108z" />
<glyph unicode="&#xf4;" horiz-adv-x="556" d="M35 242q0 118 65 186.5t177 68.5q113 0 178.5 -68.5t65.5 -186.5t-65.5 -186.5t-178.5 -68.5q-112 0 -177 68.5t-65 186.5zM105 545l101 153h142l102 -153h-104l-69 83l-68 -83h-104zM162 242q0 -65 31 -112.5t84 -47.5t85 48t32 112t-32 112t-85 48t-84 -47.5 t-31 -112.5z" />
<glyph unicode="&#xf5;" horiz-adv-x="556" d="M35 242q0 118 65 186.5t177 68.5q113 0 178.5 -68.5t65.5 -186.5t-65.5 -186.5t-178.5 -68.5q-112 0 -177 68.5t-65 186.5zM124 554q3 62 23.5 98t74.5 36q18 0 50.5 -18t51.5 -18q20 0 29 43h79q-3 -62 -23.5 -98t-74.5 -36q-18 0 -50.5 18t-51.5 18q-22 0 -30 -43h-78z M162 242q0 -65 31 -112.5t84 -47.5t85 48t32 112t-32 112t-85 48t-84 -47.5t-31 -112.5z" />
<glyph unicode="&#xf6;" horiz-adv-x="556" d="M35 242q0 118 65 186.5t177 68.5q113 0 178.5 -68.5t65.5 -186.5t-65.5 -186.5t-178.5 -68.5q-112 0 -177 68.5t-65 186.5zM128 564v116h123v-116h-123zM162 242q0 -65 31 -112.5t84 -47.5t85 48t32 112t-32 112t-85 48t-84 -47.5t-31 -112.5zM305 564v116h123v-116h-123 z" />
<glyph unicode="&#xf7;" horiz-adv-x="549" d="M40 273v99h469v-99h-469zM207 83v117h135v-117h-135zM207 450v117h135v-117h-135z" />
<glyph unicode="&#xf8;" horiz-adv-x="556" d="M35 242q0 118 65 186.5t177 68.5q57 0 104 -19l32 48h87l-56 -87q77 -69 77 -197q0 -118 -65.5 -186.5t-178.5 -68.5q-57 0 -109 21l-35 -54h-87l61 94q-72 67 -72 194zM162 242q0 -46 15 -83l148 230q-23 13 -48 13q-53 0 -84 -47.5t-31 -112.5zM225 97q23 -15 52 -15 q53 0 85 48t32 112q0 48 -19 89z" />
<glyph unicode="&#xf9;" horiz-adv-x="564" d="M60 203v281h128v-281q0 -120 79 -120q11 0 24 3t34.5 11.5t35.5 31t14 56.5v299h129v-484h-123v55q-20 -30 -55 -46.5t-53 -19t-31 -2.5q-75 0 -128.5 52t-53.5 164zM122 698h141l93 -151h-108z" />
<glyph unicode="&#xfa;" horiz-adv-x="564" d="M60 203v281h128v-281q0 -120 79 -120q11 0 24 3t34.5 11.5t35.5 31t14 56.5v299h129v-484h-123v55q-20 -30 -55 -46.5t-53 -19t-31 -2.5q-75 0 -128.5 52t-53.5 164zM188 547l93 151h141l-126 -151h-108z" />
<glyph unicode="&#xfb;" horiz-adv-x="564" d="M60 203v281h128v-281q0 -120 79 -120q11 0 24 3t34.5 11.5t35.5 31t14 56.5v299h129v-484h-123v55q-20 -30 -55 -46.5t-53 -19t-31 -2.5q-75 0 -128.5 52t-53.5 164zM109 545l101 153h142l102 -153h-104l-69 83l-68 -83h-104z" />
<glyph unicode="&#xfc;" horiz-adv-x="564" d="M60 203v281h128v-281q0 -120 79 -120q11 0 24 3t34.5 11.5t35.5 31t14 56.5v299h129v-484h-123v55q-20 -30 -55 -46.5t-53 -19t-31 -2.5q-75 0 -128.5 52t-53.5 164zM132 564v116h123v-116h-123zM309 564v116h123v-116h-123z" />
<glyph unicode="&#xfd;" horiz-adv-x="560" d="M10 484h135l138 -327q43 106 132 327h135l-252 -594q-14 -33 -43.5 -53t-51 -24.5t-41.5 -4.5q-30 0 -79 18l15 95q3 -1 13 -6t15.5 -7t15.5 -4t17 0t15 8t14 17l33 81q-15 34 -37 84t-69.5 156t-104.5 234zM192 547l93 151h141l-126 -151h-108z" />
<glyph unicode="&#xfe;" horiz-adv-x="571" d="M65 -192v867h128v-246q23 37 59.5 52.5t69.5 15.5q101 0 157.5 -64.5t56.5 -190.5t-59 -189.5t-163 -63.5q-86 0 -122 50v-231h-127zM193 172q0 -87 108 -87q53 0 77.5 45t24.5 112q0 157 -118 157q-26 0 -59 -22.5t-33 -67.5v-137z" />
<glyph unicode="&#xff;" horiz-adv-x="560" d="M10 484h135l138 -327q43 106 132 327h135l-252 -594q-14 -33 -43.5 -53t-51 -24.5t-41.5 -4.5q-30 0 -79 18l15 95q3 -1 13 -6t15.5 -7t15.5 -4t17 0t15 8t14 17l33 81q-15 34 -37 84t-69.5 156t-104.5 234zM130 564v116h123v-116h-123zM307 564v116h123v-116h-123z" />
<glyph unicode="&#x152;" horiz-adv-x="1090" d="M40 337q0 161 88 254.5t228 93.5q136 0 211 -87v76h471v-102h-339v-181h314v-102h-314v-187h346v-102h-478v76q-36 -44 -93.5 -65.5t-117.5 -21.5q-144 0 -230 93t-86 255zM175 337q0 -110 50.5 -179t145.5 -69t145 69t50 179q0 106 -50.5 177t-144.5 71t-145 -71 t-51 -177z" />
<glyph unicode="&#x153;" horiz-adv-x="906" d="M35 242q0 118 65 186.5t178 68.5q114 0 178 -81q26 37 73.5 59t102.5 22q110 0 174.5 -66.5t64.5 -181.5l-3 -51l-344 -3q5 -46 28.5 -74t54.5 -36.5t71 -5.5t73.5 12t67.5 23l20 -81q-31 -18 -86 -32t-117 -14q-51 0 -98.5 19.5t-76.5 52.5q-55 -72 -183 -72 q-113 0 -178 68.5t-65 186.5zM163 242q0 -65 30.5 -113t84.5 -48q53 0 84.5 48.5t31.5 112.5t-31.5 112t-84.5 48q-54 0 -84.5 -47.5t-30.5 -112.5zM528 284h214q-13 116 -110 116q-47 0 -72.5 -34t-31.5 -82z" />
<glyph unicode="&#x178;" horiz-adv-x="671" d="M10 674h151l175 -341l174 341h151l-258 -437v-237h-134v236zM185 754v116h123v-116h-123zM362 754v116h123v-116h-123z" />
<glyph unicode="&#x2c6;" horiz-adv-x="425" d="M40 545l101 153h142l102 -153h-104l-69 83l-68 -83h-104z" />
<glyph unicode="&#x2dc;" horiz-adv-x="388" d="M40 554q3 62 23.5 98t74.5 36q18 0 50.5 -18t51.5 -18q20 0 29 43h79q-3 -62 -23.5 -98t-74.5 -36q-18 0 -50.5 18t-51.5 18q-22 0 -30 -43h-78z" />
<glyph unicode="&#x2000;" horiz-adv-x="480" />
<glyph unicode="&#x2001;" horiz-adv-x="961" />
<glyph unicode="&#x2002;" horiz-adv-x="480" />
<glyph unicode="&#x2003;" horiz-adv-x="961" />
<glyph unicode="&#x2004;" horiz-adv-x="320" />
<glyph unicode="&#x2005;" horiz-adv-x="240" />
<glyph unicode="&#x2006;" horiz-adv-x="160" />
<glyph unicode="&#x2007;" horiz-adv-x="160" />
<glyph unicode="&#x2008;" horiz-adv-x="120" />
<glyph unicode="&#x2009;" horiz-adv-x="192" />
<glyph unicode="&#x200a;" horiz-adv-x="53" />
<glyph unicode="&#x2010;" horiz-adv-x="441" d="M40 203v115h361v-115h-361z" />
<glyph unicode="&#x2011;" horiz-adv-x="441" d="M40 203v115h361v-115h-361z" />
<glyph unicode="&#x2012;" horiz-adv-x="441" d="M40 203v115h361v-115h-361z" />
<glyph unicode="&#x2013;" horiz-adv-x="578" d="M40 216v100h498v-100h-498z" />
<glyph unicode="&#x2014;" horiz-adv-x="762" d="M40 217v99h682v-99h-682z" />
<glyph unicode="&#x2018;" horiz-adv-x="333" d="M50 489l126 185h107l-98 -185h-135z" />
<glyph unicode="&#x2019;" horiz-adv-x="334" d="M50 490l98 184h136l-128 -184h-106z" />
<glyph unicode="&#x201a;" horiz-adv-x="312" d="M40 -72l96 189h136l-126 -189h-106z" />
<glyph unicode="&#x201c;" horiz-adv-x="513" d="M50 674h134l99 -184h-106zM231 674h134l98 -184h-105z" />
<glyph unicode="&#x201d;" horiz-adv-x="513" d="M50 490l98 184h134l-127 -184h-105zM230 490l99 184h134l-127 -184h-106z" />
<glyph unicode="&#x201e;" horiz-adv-x="500" d="M40 -72l96 189h136l-126 -189h-106zM228 -72l96 189h136l-126 -189h-106z" />
<glyph unicode="&#x2022;" horiz-adv-x="354" d="M50 302q0 50 36.5 84t89.5 34t90.5 -34.5t37.5 -83.5t-37.5 -83t-90.5 -34t-89.5 34t-36.5 83z" />
<glyph unicode="&#x2026;" horiz-adv-x="691" d="M50 0v117h129v-117h-129zM281 0v117h129v-117h-129zM513 0v117h128v-117h-128z" />
<glyph unicode="&#x202f;" horiz-adv-x="192" />
<glyph unicode="&#x2039;" horiz-adv-x="334" d="M40 325l131 232h118l-130 -235l135 -230h-123z" />
<glyph unicode="&#x203a;" horiz-adv-x="334" d="M40 92l135 230l-130 235h118l131 -232l-131 -233h-123z" />
<glyph unicode="&#x205f;" horiz-adv-x="240" />
<glyph unicode="&#x20ac;" horiz-adv-x="678" d="M20 346l34 79h90q28 113 114 180.5t215 67.5q86 0 165 -41l-41 -80q-44 24 -103 24q-170 0 -218 -151h289l-39 -79h-266q-1 -27 0 -39h258l-39 -80h-198q24 -62 78 -101t135 -39q52 0 113 32l31 -88q-81 -42 -165 -42q-125 0 -210.5 65t-115.5 173h-126l33 80h80 q-2 4 -0.5 19.5t1.5 19.5h-115z" />
<glyph unicode="&#x2122;" horiz-adv-x="816" d="M15 613v61h416l111 -294l110 294h103l21 -400h-79l-18 282l-107 -282h-62l-106 282l-18 -282h-79l17 339h-107v-339h-78v339h-124z" />
<glyph unicode="&#xe000;" horiz-adv-x="485" d="M0 0v485h485v-485h-485z" />
</font>
</defs>
</svg>
